/* XPM */
static char *d9be0135737143aff196b660dc3f58ab6uygg5goYiKu8awq[] = {
/* columns rows colors chars-per-pixel */
"64 64 6 1 ",
"  c #202020",
". c #4A2E04",
"X c gray25",
"o c #B83604",
"O c red",
"+ c #E48520",
/* pixels */
"XXXXXXXXXXXXXXXXXXXXXXXXXXXXXXXXOOOOOOOOOOOOOOOOOOOOOOOOOOOOOOOO",
"X               X               O+++++++++++++++O+++++++++++++++",
"X               X               O+++++++++++++++O+++++++++++++++",
"X               X               O+++++++++++++++O+++++++++++++++",
"X               X               O+++++++++++++++O+++++++++++++++",
"X               X               O+++++++++++++++O+++++++++++++++",
"X               X               O+++++++++++++++O+++++++++++++++",
"X               X               O+++++++++++++++O+++++++++++++++",
"XXXXXXXXXXXXXXXXXXXXXXXXXXXXXXXXOOOOOOOOOOOOOOOOOOOOOOOOOOOOOOOO",
"        X               X       ++++++++O+++++++++++++++O+++++++",
"        X               X       ++++++++O+++++++++++++++O+++++++",
"        X               X       ++++++++O+++++++++++++++O+++++++",
"        X               X       ++++++++O+++++++++++++++O+++++++",
"        X               X       ++++++++O+++++++++++++++O+++++++",
"        X               X       ++++++++O+++++++++++++++O+++++++",
"        X               X       ++++++++O+++++++++++++++O+++++++",
"XXXXXXXXXXXXXXXXXXXXXXXXXXXXXXXXOOOOOOOOOOOOOOOOOOOOOOOOOOOOOOOO",
"X               X               O+++++++++++++++O+++++++++++++++",
"X               X               O+++++++++++++++O+++++++++++++++",
"X               X               O+++++++++++++++O+++++++++++++++",
"X               X               O+++++++++++++++O+++++++++++++++",
"X               X               O+++++++++++++++O+++++++++++++++",
"X               X               O+++++++++++++++O+++++++++++++++",
"X               X               O+++++++++++++++O+++++++++++++++",
"XXXXXXXXXXXXXXXXXXXXXXXXXXXXXXXXOOOOOOOOOOOOOOOOOOOOOOOOOOOOOOOO",
"        X               X       ++++++++O+++++++++++++++O+++++++",
"        X               X       ++++++++O+++++++++++++++O+++++++",
"        X               X       ++++++++O+++++++++++++++O+++++++",
"        X               X       ++++++++O+++++++++++++++O+++++++",
"        X               X       ++++++++O+++++++++++++++O+++++++",
"        X               X       ++++++++O+++++++++++++++O+++++++",
"        X               X       ++++++++O+++++++++++++++O+++++++",
"XXXXXXXXXXXXXXXXXXXXXXXXXXXXXXXXXXXXXXXXXXXXXXXXXXXXXXXXXXXXXXXX",
"XoooooooooooooooXoooooooooooooooX...............X...............",
"XoooooooooooooooXoooooooooooooooX...............X...............",
"XoooooooooooooooXoooooooooooooooX...............X...............",
"XoooooooooooooooXoooooooooooooooX...............X...............",
"XoooooooooooooooXoooooooooooooooX...............X...............",
"XoooooooooooooooXoooooooooooooooX...............X...............",
"XoooooooooooooooXoooooooooooooooX...............X...............",
"XXXXXXXXXXXXXXXXXXXXXXXXXXXXXXXXXXXXXXXXXXXXXXXXXXXXXXXXXXXXXXXX",
"ooooooooXoooooooooooooooXooooooo........X...............X.......",
"ooooooooXoooooooooooooooXooooooo........X...............X.......",
"ooooooooXoooooooooooooooXooooooo........X...............X.......",
"ooooooooXoooooooooooooooXooooooo........X...............X.......",
"ooooooooXoooooooooooooooXooooooo........X...............X.......",
"ooooooooXoooooooooooooooXooooooo........X...............X.......",
"ooooooooXoooooooooooooooXooooooo........X...............X.......",
"XXXXXXXXXXXXXXXXXXXXXXXXXXXXXXXXXXXXXXXXXXXXXXXXXXXXXXXXXXXXXXXX",
"XoooooooooooooooXoooooooooooooooX...............X...............",
"XoooooooooooooooXoooooooooooooooX...............X...............",
"XoooooooooooooooXoooooooooooooooX...............X...............",
"XoooooooooooooooXoooooooooooooooX...............X...............",
"XoooooooooooooooXoooooooooooooooX...............X...............",
"XoooooooooooooooXoooooooooooooooX...............X...............",
"XoooooooooooooooXoooooooooooooooX...............X...............",
"XXXXXXXXXXXXXXXXXXXXXXXXXXXXXXXXXXXXXXXXXXXXXXXXXXXXXXXXXXXXXXXX",
"ooooooooXoooooooooooooooXooooooo........X...............X.......",
"ooooooooXoooooooooooooooXooooooo........X...............X.......",
"ooooooooXoooooooooooooooXooooooo........X...............X.......",
"ooooooooXoooooooooooooooXooooooo........X...............X.......",
"ooooooooXoooooooooooooooXooooooo........X...............X.......",
"ooooooooXoooooooooooooooXooooooo........X...............X.......",
"ooooooooXoooooooooooooooXooooooo........X...............X......."
};
